<svg height="512pt" viewBox="0 0 512 512" width="512pt" xmlns="http://www.w3.org/2000/svg"><path d="m138.859375 464.414062c-50.410156 0-91.273437-40.863281-91.273437-91.273437v-234.28125c0-50.410156 40.863281-91.273437 91.273437-91.273437h234.277344c50.414062 0 91.277343 40.863281 91.277343 91.273437v234.277344c0 50.414062-40.863281 91.277343-91.277343 91.277343zm0 0" fill="#73da8c"/><path d="m47.585938 138.859375v234.277344c0 50.414062 40.863281 91.277343 91.273437 91.277343h78.730469c-18.148438-34.480468-16.25-74.980468-16.25-74.980468s-.003906-68.042969-.003906-123.277344c0-36.578125 16.5-70.96875 44.363281-94.667969 55.339843-47.078125 52.859375-123.90625 52.859375-123.90625h-159.695313c-50.414062.003907-91.277343 40.867188-91.277343 91.277344zm0 0" fill="#00c140"/><path d="m340.339844 401.488281h-168.679688c-33.769531 0-61.148437-27.378906-61.148437-61.148437v-168.679688c0-33.769531 27.378906-61.148437 61.148437-61.148437h168.679688c33.769531 0 61.148437 27.378906 61.148437 61.148437v168.679688c0 33.769531-27.378906 61.148437-61.148437 61.148437zm0 0" fill="#f4e74d"/><path d="m171.660156 110.511719c-33.769531 0-61.148437 27.378906-61.148437 61.148437v168.679688c0 33.769531 27.378906 61.148437 61.148437 61.148437h29.875c-.410156-7.433593-.195312-12.050781-.195312-12.050781s-.003906-68.046875-.003906-123.277344c0-36.582031 16.5-70.972656 44.363281-94.671875 21.121093-17.96875 33.820312-40.265625 41.449219-60.976562zm0 0" fill="#eedb00"/><path d="m217.851562 364.125h-33.023437c-16.042969 0-29.050781-13.007812-29.050781-29.054688v-33.019531c0-16.042969 13.007812-29.054687 29.050781-29.054687h33.023437c16.042969 0 29.050782 13.011718 29.050782 29.054687v33.019531c0 16.046876-13.007813 29.054688-29.050782 29.054688zm0 0" fill="#ffa93f"/><path d="m331.867188 364.125h-15.335938c-13.453125 0-24.355469-10.902344-24.355469-24.355469v-42.414062c0-13.453125 10.902344-24.359375 24.355469-24.359375h15.335938c13.453124 0 24.359374 10.90625 24.359374 24.359375v42.414062c-.003906 13.449219-10.90625 24.355469-24.359374 24.355469zm0 0" fill="#ffa93f"/><g fill="#767678"><path d="m174.828125 86.179688c-12.070313 0-21.855469-9.785157-21.855469-21.855469v-34.96875c0-12.070313 9.785156-21.855469 21.855469-21.855469s21.855469 9.785156 21.855469 21.855469v34.96875c0 12.070312-9.785156 21.855469-21.855469 21.855469zm0 0"/><path d="m256 86.179688c-12.070312 0-21.855469-9.785157-21.855469-21.855469v-34.96875c0-12.070313 9.785157-21.855469 21.855469-21.855469s21.855469 9.785156 21.855469 21.855469v34.96875c0 12.070312-9.785157 21.855469-21.855469 21.855469zm0 0"/><path d="m337.171875 86.179688c-12.070313 0-21.855469-9.785157-21.855469-21.855469v-34.96875c0-12.070313 9.785156-21.855469 21.855469-21.855469s21.855469 9.785156 21.855469 21.855469v34.96875c0 12.070312-9.785156 21.855469-21.855469 21.855469zm0 0"/><path d="m174.828125 504.5c-12.070313 0-21.855469-9.785156-21.855469-21.855469v-34.96875c0-12.070312 9.785156-21.855469 21.855469-21.855469s21.855469 9.785157 21.855469 21.855469v34.96875c0 12.070313-9.785156 21.855469-21.855469 21.855469zm0 0"/><path d="m256 504.5c-12.070312 0-21.855469-9.785156-21.855469-21.855469v-34.96875c0-12.070312 9.785157-21.855469 21.855469-21.855469s21.855469 9.785157 21.855469 21.855469v34.96875c0 12.070313-9.785157 21.855469-21.855469 21.855469zm0 0"/><path d="m337.171875 504.5c-12.070313 0-21.855469-9.785156-21.855469-21.855469v-34.96875c0-12.070312 9.785156-21.855469 21.855469-21.855469s21.855469 9.785157 21.855469 21.855469v34.96875c0 12.070313-9.785156 21.855469-21.855469 21.855469zm0 0"/><path d="m425.820312 174.828125c0-12.070313 9.785157-21.855469 21.855469-21.855469h34.96875c12.070313 0 21.855469 9.785156 21.855469 21.855469s-9.785156 21.855469-21.855469 21.855469h-34.96875c-12.070312 0-21.855469-9.785156-21.855469-21.855469zm0 0"/><path d="m425.820312 256c0-12.070312 9.785157-21.855469 21.855469-21.855469h34.96875c12.070313 0 21.855469 9.785157 21.855469 21.855469s-9.785156 21.855469-21.855469 21.855469h-34.96875c-12.070312 0-21.855469-9.785157-21.855469-21.855469zm0 0"/><path d="m425.820312 337.171875c0-12.070313 9.785157-21.855469 21.855469-21.855469h34.96875c12.070313 0 21.855469 9.785156 21.855469 21.855469s-9.785156 21.855469-21.855469 21.855469h-34.96875c-12.070312 0-21.855469-9.785156-21.855469-21.855469zm0 0"/><path d="m7.5 174.828125c0-12.070313 9.785156-21.855469 21.855469-21.855469h34.96875c12.070312 0 21.855469 9.785156 21.855469 21.855469s-9.785157 21.855469-21.855469 21.855469h-34.96875c-12.070313 0-21.855469-9.785156-21.855469-21.855469zm0 0"/><path d="m7.5 256c0-12.070312 9.785156-21.855469 21.855469-21.855469h34.96875c12.070312 0 21.855469 9.785157 21.855469 21.855469s-9.785157 21.855469-21.855469 21.855469h-34.96875c-12.070313 0-21.855469-9.785157-21.855469-21.855469zm0 0"/><path d="m7.5 337.171875c0-12.070313 9.785156-21.855469 21.855469-21.855469h34.96875c12.070312 0 21.855469 9.785156 21.855469 21.855469s-9.785157 21.855469-21.855469 21.855469h-34.96875c-12.070313 0-21.855469-9.785156-21.855469-21.855469zm0 0"/></g><path d="m254.773438 234.152344c-15.519532 0-28.101563-12.578125-28.101563-28.097656v-20.429688c0-4.238281 3.433594-7.671875 7.671875-7.671875h40.859375c4.238281 0 7.671875 3.433594 7.671875 7.671875v20.429688c-.003906 15.519531-12.582031 28.097656-28.101562 28.097656zm0 0" fill="#454545"/><path d="m190.75 206.054688c0-13.183594-13.417969-23.871094-29.972656-23.871094-16.554688 0-29.972656 10.6875-29.972656 23.871094 0 13.179687 13.417968 23.867187 29.972656 23.867187 16.554687 0 29.972656-10.6875 29.972656-23.867187zm0 0" fill="#ffabcd"/><path d="m378.742188 206.054688c0-13.183594-13.417969-23.871094-29.972657-23.871094-16.554687 0-29.972656 10.6875-29.972656 23.871094 0 13.179687 13.417969 23.867187 29.972656 23.867187 16.554688 0 29.972657-10.6875 29.972657-23.867187zm0 0" fill="#ffabcd"/><path d="m184.828125 364.125h16.511719c-.003906-23.191406-.003906-58.738281-.003906-91.128906h-16.507813c-16.046875 0-29.054687 13.011718-29.054687 29.054687v33.019531c0 16.046876 13.007812 29.054688 29.054687 29.054688zm0 0" fill="#ff9000"/><path d="m342.929688 185.449219v-12.449219c0-4.140625-3.355469-7.5-7.5-7.5-4.140626 0-7.5 3.359375-7.5 7.5v12.449219c0 4.144531 3.359374 7.5 7.5 7.5 4.144531 0 7.5-3.355469 7.5-7.5zm0 0"/><path d="m181.617188 185.449219v-12.449219c0-4.140625-3.359376-7.5-7.5-7.5-4.144532 0-7.5 3.359375-7.5 7.5v12.449219c0 4.144531 3.355468 7.5 7.5 7.5 4.140624 0 7.5-3.355469 7.5-7.5zm0 0"/><path d="m110.511719 306.9375c-4.140625 0-7.5 3.359375-7.5 7.5v25.902344c0 37.851562 30.796875 68.648437 68.648437 68.648437h168.679688c37.851562 0 68.648437-30.796875 68.648437-68.648437v-168.679688c0-37.851562-30.796875-68.648437-68.648437-68.648437h-168.679688c-37.851562 0-68.648437 30.796875-68.648437 68.648437v111.828125c0 4.144531 3.359375 7.5 7.5 7.5s7.5-3.355469 7.5-7.5v-111.828125c0-29.582031 24.066406-53.648437 53.648437-53.648437h168.679688c29.582031 0 53.648437 24.066406 53.648437 53.648437v168.679688c0 29.582031-24.066406 53.648437-53.648437 53.648437h-168.679688c-29.582031 0-53.648437-24.066406-53.648437-53.648437v-25.902344c0-4.140625-3.359375-7.5-7.5-7.5zm0 0"/><path d="m148.273438 302.050781v33.019531c0 20.15625 16.398437 36.554688 36.554687 36.554688h33.023437c20.15625 0 36.550782-16.398438 36.550782-36.554688v-33.019531c0-20.15625-16.394532-36.554687-36.550782-36.554687h-33.023437c-20.15625 0-36.554687 16.398437-36.554687 36.554687zm15 0c0-11.882812 9.671874-21.554687 21.554687-21.554687h33.023437c11.882813 0 21.550782 9.671875 21.550782 21.554687v33.019531c0 11.886719-9.667969 21.554688-21.550782 21.554688h-33.023437c-11.882813 0-21.554687-9.667969-21.554687-21.554688zm0 0"/><path d="m284.675781 297.355469v42.414062c0 17.566407 14.289063 31.855469 31.855469 31.855469h15.335938c17.566406 0 31.855468-14.289062 31.855468-31.855469v-42.414062c0-17.566407-14.289062-31.859375-31.855468-31.859375h-15.335938c-17.566406 0-31.855469 14.292968-31.855469 31.859375zm64.050781 0v42.414062c0 9.292969-7.566406 16.855469-16.859374 16.855469h-15.335938c-9.292969 0-16.855469-7.5625-16.855469-16.855469v-42.414062c0-9.296875 7.5625-16.859375 16.855469-16.859375h15.335938c9.292968 0 16.859374 7.5625 16.859374 16.859375zm0 0"/><path d="m482.644531 285.355469c16.1875 0 29.355469-13.167969 29.355469-29.355469s-13.167969-29.355469-29.355469-29.355469h-10.730469v-22.460937h10.730469c16.1875 0 29.355469-13.167969 29.355469-29.355469 0-16.183594-13.167969-29.355469-29.355469-29.355469h-10.730469v-6.609375c0-25.851562-9.917968-50.296875-27.929687-68.832031-2.886719-2.96875-7.636719-3.039062-10.605469-.152344-2.972656 2.886719-3.039062 7.636719-.152344 10.605469 15.277344 15.71875 23.6875 36.453125 23.6875 58.378906v6.609375h-9.238281c-16.1875 0-29.355469 13.171875-29.355469 29.355469 0 16.1875 13.167969 29.355469 29.355469 29.355469h9.238281v22.460937h-9.238281c-16.1875 0-29.355469 13.167969-29.355469 29.355469s13.167969 29.355469 29.355469 29.355469h9.238281v22.460937h-9.238281c-16.1875 0-29.355469 13.167969-29.355469 29.355469 0 16.183594 13.167969 29.355469 29.355469 29.355469h9.238281v6.609375c0 46.195312-37.578124 83.777343-83.773437 83.777343h-6.613281v-9.238281c0-16.1875-13.167969-29.355469-29.355469-29.355469-16.183594 0-29.355469 13.167969-29.355469 29.355469v9.238281h-22.460937v-9.238281c0-16.1875-13.167969-29.355469-29.351563-29.355469-16.1875 0-29.359375 13.167969-29.359375 29.355469v9.238281h-22.457031v-9.238281c0-16.1875-13.171875-29.355469-29.355469-29.355469-16.1875 0-29.355469 13.167969-29.355469 29.355469v9.238281h-6.613281c-46.195312 0-83.777343-37.582031-83.777343-83.777343v-6.609375h9.242187c16.1875 0 29.355469-13.171875 29.355469-29.355469 0-16.1875-13.171875-29.355469-29.355469-29.355469h-9.242187v-22.460937h9.242187c16.1875 0 29.355469-13.167969 29.355469-29.355469s-13.171875-29.355469-29.355469-29.355469h-9.242187v-22.460937h9.242187c16.1875 0 29.355469-13.167969 29.355469-29.355469 0-16.183594-13.171875-29.355469-29.355469-29.355469h-9.242187v-6.609375c0-46.195312 37.582031-83.777343 83.777343-83.777343h6.613281v9.238281c0 16.1875 13.167969 29.355469 29.355469 29.355469 16.183594 0 29.355469-13.167969 29.355469-29.355469v-9.238281h22.457031v9.238281c0 16.1875 13.171875 29.355469 29.359375 29.355469 16.183594 0 29.351563-13.167969 29.351563-29.355469v-9.238281h22.460937v9.238281c0 16.1875 13.171875 29.355469 29.355469 29.355469 16.1875 0 29.355469-13.167969 29.355469-29.355469v-9.238281h6.613281c13.222656 0 25.84375 3.050781 37.597656 8.886718 5.257813 2.613282 8.753907-.707031 10.070313-3.328125 1.859375-3.699219.371094-8.207031-3.328125-10.070312-13.835938-6.960938-28.753907-10.488281-44.339844-10.488281h-6.613281v-10.730469c0-16.1875-13.167969-29.355469-29.355469-29.355469s-29.355469 13.167969-29.355469 29.355469v10.730469h-22.460937v-10.730469c0-16.1875-13.167969-29.355469-29.355469-29.355469s-29.355469 13.167969-29.355469 29.355469v10.730469h-22.460937v-10.730469c0-16.1875-13.167969-29.355469-29.355469-29.355469s-29.355469 13.167969-29.355469 29.355469v10.730469h-6.609375c-54.46875 0-98.777343 44.308593-98.777343 98.773437v6.613281h-10.730469c-16.1875 0-29.355469 13.167969-29.355469 29.355469s13.167969 29.355469 29.355469 29.355469h10.730469v22.460937h-10.730469c-16.1875 0-29.355469 13.167969-29.355469 29.355469s13.167969 29.355469 29.355469 29.355469h10.730469v22.460937h-10.730469c-16.1875 0-29.355469 13.167969-29.355469 29.355469s13.167969 29.355469 29.355469 29.355469h10.730469v6.609375c0 54.46875 44.308593 98.777343 98.773437 98.777343h6.613281v10.730469c0 16.1875 13.167969 29.355469 29.355469 29.355469s29.355469-13.171875 29.355469-29.355469v-10.730469h22.460937v10.730469c0 16.1875 13.167969 29.355469 29.355469 29.355469s29.355469-13.167969 29.355469-29.355469v-10.730469h22.460937v10.730469c0 16.1875 13.167969 29.355469 29.355469 29.355469 16.183594 0 29.355469-13.167969 29.355469-29.355469v-10.730469h6.609375c54.464843 0 98.777343-44.308593 98.777343-98.773437v-6.613281h10.730469c16.183594 0 29.351563-13.167969 29.351563-29.355469s-13.167969-29.355469-29.351563-29.355469h-10.730469v-22.460937zm-49.324219-110.527344c0-7.914063 6.4375-14.355469 14.355469-14.355469h34.96875c7.914063 0 14.355469 6.441406 14.355469 14.355469s-6.441406 14.355469-14.355469 14.355469h-34.96875c-7.914062 0-14.355469-6.441406-14.355469-14.355469zm-110.503906-145.472656c0-7.917969 6.4375-14.355469 14.355469-14.355469 7.914063 0 14.355469 6.441406 14.355469 14.355469v34.96875c0 7.914062-6.441406 14.355469-14.355469 14.355469-7.917969 0-14.355469-6.441407-14.355469-14.355469zm-81.171875 0c0-7.914063 6.441407-14.355469 14.355469-14.355469s14.355469 6.441406 14.355469 14.355469v34.96875c0 7.914062-6.441407 14.355469-14.355469 14.355469s-14.355469-6.441407-14.355469-14.355469zm-81.171875 0c0-7.917969 6.441406-14.355469 14.355469-14.355469s14.355469 6.441406 14.355469 14.355469v34.96875c0 7.914062-6.441406 14.355469-14.355469 14.355469s-14.355469-6.441407-14.355469-14.355469zm-145.472656 145.472656c0-7.914063 6.441406-14.355469 14.355469-14.355469h34.96875c7.914062 0 14.355469 6.441406 14.355469 14.355469s-6.441407 14.355469-14.355469 14.355469h-34.96875c-7.914063 0-14.355469-6.441406-14.355469-14.355469zm0 81.171875c0-7.914062 6.441406-14.355469 14.355469-14.355469h34.96875c7.914062 0 14.355469 6.441407 14.355469 14.355469s-6.441407 14.355469-14.355469 14.355469h-34.96875c-7.914063 0-14.355469-6.441407-14.355469-14.355469zm0 81.171875c0-7.914063 6.441406-14.355469 14.355469-14.355469h34.96875c7.914062 0 14.355469 6.441406 14.355469 14.355469s-6.441407 14.355469-14.355469 14.355469h-34.96875c-7.914063 0-14.355469-6.441406-14.355469-14.355469zm174.183594 145.472656c0 7.917969-6.441406 14.355469-14.355469 14.355469s-14.355469-6.441406-14.355469-14.355469v-34.96875c0-7.914062 6.441406-14.355469 14.355469-14.355469s14.355469 6.441407 14.355469 14.355469zm81.171875 0c0 7.917969-6.441407 14.355469-14.355469 14.355469s-14.355469-6.441406-14.355469-14.355469v-34.96875c0-7.914062 6.441407-14.355469 14.355469-14.355469s14.355469 6.441407 14.355469 14.355469zm81.171875 0c0 7.917969-6.4375 14.355469-14.355469 14.355469-7.914063 0-14.355469-6.441406-14.355469-14.355469v-34.96875c0-7.914062 6.441406-14.355469 14.355469-14.355469 7.917969 0 14.355469 6.441407 14.355469 14.355469zm145.472656-145.472656c0 7.914063-6.441406 14.355469-14.355469 14.355469h-34.96875c-7.914062 0-14.355469-6.441406-14.355469-14.355469s6.441407-14.355469 14.355469-14.355469h34.96875c7.914063 0 14.355469 6.441406 14.355469 14.355469zm-63.679688-81.171875c0-7.914062 6.4375-14.355469 14.355469-14.355469h34.96875c7.914063 0 14.355469 6.441407 14.355469 14.355469s-6.441406 14.355469-14.355469 14.355469h-34.96875c-7.914062 0-14.355469-6.441407-14.355469-14.355469zm0 0"/><path d="m275.203125 170.453125h-40.859375c-8.363281 0-15.171875 6.804687-15.171875 15.171875v20.429688c0 19.628906 15.972656 35.601562 35.601563 35.601562 19.628906 0 35.597656-15.972656 35.601562-35.601562v-20.429688c0-8.367188-6.808594-15.171875-15.171875-15.171875zm.171875 35.601563c-.003906 11.355468-9.242188 20.597656-20.601562 20.597656-11.359376 0-20.601563-9.238282-20.601563-20.597656v-20.433594c0-.09375 41.203125-.09375 41.203125 0zm0 0"/></svg>