<svg id="Capa_1" enable-background="new 0 0 512 512" height="512" viewBox="0 0 512 512" width="512" xmlns="http://www.w3.org/2000/svg"><path d="m386.833 7.5h-261.666c-34.669 0-62.773 28.105-62.773 62.773v371.454c0 34.669 28.105 62.773 62.773 62.773h261.666c34.669 0 62.773-28.105 62.773-62.773v-371.454c0-34.669-28.104-62.773-62.773-62.773z" fill="#5c576e"/><path d="m92.394 441.727v-371.454c0-34.668 28.104-62.773 62.773-62.773h-30c-34.669 0-62.773 28.104-62.773 62.773v371.454c0 34.669 28.104 62.773 62.773 62.773h30c-34.669 0-62.773-28.104-62.773-62.773z" fill="#423e4f"/><path d="m399.088 410.537h-286.176v-342.416h286.176z" fill="#4487da"/><path d="m142.912 68.121h-30v342.416h30z" fill="#006ad0"/><g fill="#ff97c1"><ellipse cx="175.62" cy="140.891" rx="29.659" ry="23.619"/><ellipse cx="336.38" cy="140.891" rx="29.659" ry="23.619"/><path d="m214.471 185.917h-37.288c-9.973 0-18.058 8.085-18.058 18.058v37.288c0 9.973 8.085 18.057 18.058 18.057h37.288c9.973 0 18.057-8.085 18.057-18.057v-37.288c.001-9.973-8.084-18.058-18.057-18.058z"/></g><path d="m297.529 185.917h37.288c9.973 0 18.057 8.085 18.057 18.058v37.288c0 9.973-8.085 18.057-18.057 18.057h-37.288c-9.973 0-18.057-8.085-18.057-18.057v-37.288c-.001-9.973 8.084-18.058 18.057-18.058z" fill="#50e2ce"/><path d="m214.471 291.076h-37.288c-9.973 0-18.058 8.085-18.058 18.058v37.288c0 9.973 8.085 18.057 18.058 18.057h37.288c9.973 0 18.057-8.085 18.057-18.057v-37.288c.001-9.973-8.084-18.058-18.057-18.058z" fill="#f8ea69"/><path d="m297.529 291.076h37.288c9.973 0 18.057 8.085 18.057 18.058v37.288c0 9.973-8.085 18.057-18.057 18.057h-37.288c-9.973 0-18.057-8.085-18.057-18.057v-37.288c-.001-9.973 8.084-18.058 18.057-18.058z" fill="#fff"/><circle cx="256" cy="457.518" fill="#423e4f" r="19.932"/><path d="m54.894 441.727c0 38.749 31.524 70.273 70.273 70.273h261.666c38.749 0 70.273-31.524 70.273-70.273v-80.743c0-4.142-3.358-7.5-7.5-7.5s-7.5 3.358-7.5 7.5v80.743c0 30.478-24.795 55.273-55.273 55.273h-261.666c-30.478 0-55.273-24.795-55.273-55.273v-282.063c0-4.142-3.358-7.5-7.5-7.5s-7.5 3.358-7.5 7.5z"/><path d="m449.606 338.484c4.142 0 7.5-3.358 7.5-7.5v-260.711c0-38.749-31.525-70.273-70.273-70.273h-261.666c-38.749 0-70.273 31.524-70.273 70.273v59.391c0 4.142 3.358 7.5 7.5 7.5s7.5-3.358 7.5-7.5v-59.391c0-30.478 24.795-55.273 55.273-55.273h261.666c30.478 0 55.273 24.795 55.273 55.273v260.71c0 4.143 3.358 7.501 7.5 7.501z"/><path d="m406.588 410.537v-342.416c0-4.14-3.358-7.5-7.5-7.5h-286.177c-4.142 0-7.5 3.358-7.5 7.5v342.416c0 4.143 3.358 7.5 7.5 7.5h286.177c4.14 0 7.5-3.358 7.5-7.5zm-15-7.5h-271.177v-327.416h271.176v327.416z"/><path d="m263.53 37.811c0-4.159-3.371-7.53-7.53-7.53s-7.53 3.372-7.53 7.53 3.371 7.53 7.53 7.53 7.53-3.372 7.53-7.53z"/><path d="m192.905 125.655c4.142 0 7.5-3.358 7.5-7.5v-12.124c0-4.142-3.358-7.5-7.5-7.5s-7.5 3.358-7.5 7.5v12.124c0 4.142 3.358 7.5 7.5 7.5z"/><path d="m319.095 125.655c4.142 0 7.5-3.358 7.5-7.5v-12.124c0-4.142-3.358-7.5-7.5-7.5s-7.5 3.358-7.5 7.5v12.124c0 4.142 3.358 7.5 7.5 7.5z"/><path d="m256 132.872c8.543 0 16.667-3.7 22.289-10.151 2.721-3.123 2.396-7.86-.727-10.582-3.123-2.721-7.86-2.396-10.582.727-2.772 3.181-6.774 5.005-10.98 5.005s-8.208-1.824-10.98-5.005c-2.722-3.123-7.459-3.448-10.582-.727s-3.448 7.459-.727 10.582c5.622 6.451 13.746 10.151 22.289 10.151z"/><path d="m177.183 266.82h37.288c14.092 0 25.558-11.465 25.558-25.558v-37.288c0-14.093-11.465-25.558-25.558-25.558h-37.288c-14.092 0-25.558 11.465-25.558 25.558v37.288c0 14.093 11.466 25.558 25.558 25.558zm-10.558-62.845c0-5.822 4.736-10.558 10.558-10.558h37.288c5.821 0 10.558 4.736 10.558 10.558v37.288c0 5.822-4.736 10.558-10.558 10.558h-37.288c-5.821 0-10.558-4.736-10.558-10.558z"/><path d="m271.972 203.975v37.288c0 14.093 11.465 25.558 25.558 25.558h37.288c14.092 0 25.557-11.465 25.557-25.558v-37.288c0-14.093-11.465-25.558-25.557-25.558h-37.288c-14.093 0-25.558 11.465-25.558 25.558zm15 0c0-5.822 4.736-10.558 10.558-10.558h37.288c5.821 0 10.557 4.736 10.557 10.558v37.288c0 5.822-4.736 10.558-10.557 10.558h-37.288c-5.821 0-10.558-4.736-10.558-10.558z"/><path d="m177.183 371.979h37.288c14.092 0 25.558-11.465 25.558-25.558v-37.288c0-14.092-11.465-25.558-25.558-25.558h-37.288c-14.092 0-25.558 11.465-25.558 25.558v37.288c0 14.094 11.466 25.558 25.558 25.558zm-10.558-62.845c0-5.821 4.736-10.558 10.558-10.558h37.288c5.821 0 10.558 4.736 10.558 10.558v37.288c0 5.821-4.736 10.558-10.558 10.558h-37.288c-5.821 0-10.558-4.736-10.558-10.558z"/><path d="m334.817 283.576h-37.288c-14.092 0-25.558 11.465-25.558 25.558v37.288c0 14.093 11.465 25.558 25.558 25.558h37.288c14.092 0 25.557-11.465 25.557-25.558v-37.288c0-14.092-11.464-25.558-25.557-25.558zm10.557 62.846c0 5.821-4.736 10.558-10.557 10.558h-37.288c-5.821 0-10.558-4.736-10.558-10.558v-37.288c0-5.821 4.736-10.558 10.558-10.558h37.288c5.821 0 10.557 4.736 10.557 10.558z"/><path d="m228.568 457.519c0 15.126 12.306 27.432 27.432 27.432s27.432-12.306 27.432-27.432-12.306-27.432-27.432-27.432-27.432 12.306-27.432 27.432zm39.864 0c0 6.855-5.577 12.432-12.432 12.432s-12.432-5.577-12.432-12.432c0-6.854 5.577-12.432 12.432-12.432s12.432 5.577 12.432 12.432z"/></svg>