<svg id="Capa_1" enable-background="new 0 0 512 512" height="512" viewBox="0 0 512 512" width="512" xmlns="http://www.w3.org/2000/svg"><g><g><path d="m105.921 237.033c-15.882-2.368-26.877-17.217-24.509-33.099l5.327-35.723-39.69-5.919-5.327 35.723c-5.632 37.768 20.512 73.076 58.28 78.708l66.841 9.967 5.919-39.69z" fill="#71dbba"/><path d="m406.079 237.033c15.882-2.368 26.877-17.217 24.509-33.099l-5.327-35.723 39.69-5.919 5.327 35.723c5.632 37.768-20.512 73.076-58.28 78.708l-66.841 9.967-5.919-39.69z" fill="#71dbba"/><path d="m105.43 277.532 61.413 9.158 5.919-39.69-61.061-9.105z" fill="#30cc9b"/><path d="m400.299 237.895-61.061 9.105 5.919 39.69 61.412-9.158z" fill="#30cc9b"/><path d="m385.927 339.044h-259.854l20.606-130.258 109.321-33.252 109.321 33.252z" fill="#eeedff"/><path d="m169.343 256.403c0-21.126 5.016-41.08 13.913-58.743l-36.577 11.126-20.606 130.258h72.695c-18.39-22.526-29.425-51.293-29.425-82.641z" fill="#d3d3ff"/><g><g><g><ellipse cx="180.282" cy="272.215" fill="#ff8d9d" rx="27.938" ry="22.249"/></g><g><ellipse cx="331.718" cy="272.215" fill="#ff8d9d" rx="27.939" ry="22.249"/></g></g></g><path d="m128.075 109.016-12.267-1.829c-7.573-1.129-14.627 4.094-15.756 11.667l-.929 6.231c-2.149 14.412-15.828 24.307-30.271 21.714-13.899-2.496-23.067-15.947-20.984-29.915l.848-5.685c1.129-7.573-4.094-14.627-11.667-15.756l-12.267-1.829c-7.573-1.129-14.627 4.094-15.756 11.667l-.781 5.239c-5.349 35.867 18.67 70.043 54.451 75.938 36.419 6 70.694-19.077 76.118-55.453l.929-6.231c1.129-7.574-4.095-14.628-11.668-15.758z" fill="#eeedff"/><path d="m383.925 109.016 12.267-1.829c7.573-1.129 14.627 4.094 15.756 11.667l.929 6.231c2.149 14.412 15.828 24.307 30.271 21.714 13.899-2.496 23.067-15.947 20.984-29.915l-.848-5.685c-1.129-7.573 4.094-14.627 11.667-15.756l12.267-1.829c7.573-1.129 14.627 4.094 15.756 11.667l.781 5.239c5.349 35.867-18.67 70.043-54.451 75.938-36.419 6-70.694-19.077-76.118-55.453l-.929-6.231c-1.128-7.574 4.095-14.628 11.668-15.758z" fill="#eeedff"/><path d="m236.522 80.366h38.956v75.81h-38.956z" fill="#d3d3ff"/><path d="m350.479 313.592h-188.957c-43.458 0-78.687 35.23-78.687 78.687 0 43.458 35.23 78.687 78.687 78.687h188.957c43.458 0 78.687-35.23 78.687-78.687 0-43.457-35.23-78.687-78.687-78.687z" fill="#696eb1"/><g><path d="m152.519 386.529c0-28.439 11.45-54.201 29.988-72.937h-20.986c-43.458 0-78.687 35.229-78.687 78.688 0 43.458 35.229 78.688 78.687 78.688h34.484c-26.324-18.809-43.486-49.619-43.486-84.439z" fill="#4c5698"/></g><path d="m161.522 420.806c-15.729 0-28.526-12.797-28.526-28.526s12.797-28.526 28.526-28.526h188.957c15.729 0 28.525 12.797 28.525 28.526s-12.796 28.526-28.525 28.526z" fill="#eeedff"/><path d="m365.321 208.786h-218.642l3.341-21.088c4.143-26.154 26.686-45.416 53.171-45.416h105.619c26.485 0 49.027 19.262 53.171 45.416z" fill="#696eb1"/><circle cx="256" cy="69.973" fill="#696eb1" r="28.94"/><path d="m26.305 119.509c0-8.86 1.889-17.274 5.261-24.884l-6.784-1.012c-7.573-1.129-14.627 4.094-15.756 11.667l-.781 5.239c-5.348 35.867 18.67 70.043 54.451 75.938 5.557.916 11.062 1.099 16.425.637-31.38-2.996-52.816-35.241-52.816-67.585z" fill="#d3d3ff"/><path d="m392.14 125.833c0-6.37.86-12.537 2.444-18.406l-10.659 1.59c-7.573 1.129-12.796 8.184-11.667 15.756l.929 6.231c4.249 28.493 26.2 50.049 53.016 55.172-20.414-12.342-34.063-34.748-34.063-60.343z" fill="#d3d3ff"/><path d="m242.831 53.848c0-3.587.513-7.052 1.453-10.337-10.144 4.499-17.223 14.65-17.223 26.461 0 15.983 12.957 28.94 28.94 28.94 7.642 0 14.587-2.967 19.76-7.805-18.558-2.28-32.93-18.085-32.93-37.259z" fill="#4c5698"/><path d="m236.226 142.282h-33.036c-26.485 0-49.027 19.262-53.171 45.416l-3.341 21.088h31.608c11.069-28.296 31.71-51.787 57.94-66.504z" fill="#4c5698"/><g><path d="m152.519 386.529c0-7.543.813-14.896 2.342-21.982-12.526 3.009-21.866 14.298-21.866 27.733 0 14.625 11.065 26.708 25.262 28.334-3.713-10.676-5.738-22.144-5.738-34.085z" fill="#d3d3ff"/></g></g><g><path d="m161.52 356.256c-19.866 0-36.027 16.161-36.027 36.027 0 19.865 16.161 36.026 36.027 36.026h188.96c19.865 0 36.026-16.162 36.026-36.026 0-19.866-16.161-36.027-36.026-36.027zm209.986 36.027c0 11.594-9.432 21.026-21.026 21.026h-188.96c-11.594 0-21.027-9.432-21.027-21.026s9.433-21.027 21.027-21.027h188.96c11.594 0 21.026 9.432 21.026 21.027z"/><path d="m196.563 231.877c-4.142 0-7.5 3.358-7.5 7.5v11.421c0 4.142 3.358 7.5 7.5 7.5s7.5-3.358 7.5-7.5v-11.421c.001-4.142-3.357-7.5-7.5-7.5z"/><path d="m315.437 231.877c-4.142 0-7.5 3.358-7.5 7.5v11.421c0 4.142 3.358 7.5 7.5 7.5s7.5-3.358 7.5-7.5v-11.421c0-4.142-3.358-7.5-7.5-7.5z"/><path d="m276.598 244.804c-3.123-2.721-7.861-2.397-10.582.727-2.529 2.902-6.18 4.566-10.016 4.566s-7.487-1.664-10.016-4.566c-2.721-3.123-7.459-3.447-10.582-.727-3.123 2.722-3.448 7.459-.727 10.582 5.379 6.171 13.151 9.711 21.325 9.711 8.173 0 15.946-3.54 21.325-9.711 2.721-3.123 2.396-7.861-.727-10.582z"/><path d="m511.178 109.411-.781-5.239c-1.738-11.651-12.632-19.715-24.281-17.979l-12.266 1.829c-11.677 1.742-19.721 12.601-17.979 24.281l.848 5.686c1.502 10.07-5.179 19.682-14.892 21.427-10.275 1.844-19.998-5.182-21.528-15.438l-.929-6.231c-1.738-11.651-12.63-19.718-24.281-17.979l-12.267 1.829c-11.651 1.738-19.716 12.63-17.978 24.281l.929 6.232c4.602 30.86 27.682 53.995 55.581 60.721l1.821 12.21c1.758 11.793-6.405 22.817-18.197 24.576l-28.101 4.19c-.555-3.507 2.35 14.847-7.484-47.281-4.75-29.982-30.227-51.744-60.58-51.744h-25.831v-40.342c5.876-6.473 9.462-15.06 9.462-24.471 0-20.093-16.347-36.441-36.441-36.441s-36.441 16.347-36.441 36.441c0 9.41 3.586 17.998 9.462 24.471v40.34h-25.834c-30.352 0-55.83 21.761-60.58 51.743-.553 3.492 2.35-14.843-7.484 47.282l-28.101-4.19c-11.795-1.759-19.956-12.78-18.197-24.576l1.821-12.21c9.289-2.24 18.143-6.317 26.117-12.128 16.074-11.714 26.538-28.971 29.464-48.593l.929-6.232c1.742-11.677-6.3-22.539-17.979-24.281l-12.266-1.829c-11.653-1.737-22.543 6.327-24.281 17.979l-.929 6.231c-1.527 10.243-11.238 17.285-21.528 15.439-9.713-1.745-16.394-11.357-14.892-21.427l.848-5.686c1.737-11.651-6.328-22.543-17.979-24.281l-12.268-1.829c-11.677-1.741-22.539 6.3-24.28 17.979l-.781 5.239c-4.581 30.717 10.352 60.131 35.324 75.122l-1.845 12.374c-3.02 20.248 2.043 40.483 14.256 56.976s30.089 27.239 50.337 30.258l27.618 4.118-4.331 27.375c-27.789 14.322-46.849 43.291-46.849 76.648 0 47.524 38.664 86.188 86.188 86.188h188.96c47.525 0 86.189-38.664 86.189-86.188 0-9.819-1.656-19.482-4.921-28.72-1.381-3.906-5.665-5.953-9.571-4.572-3.905 1.38-5.952 5.665-4.572 9.57 2.696 7.629 4.064 15.61 4.064 23.722 0 39.254-31.935 71.188-71.189 71.188h-188.962c-39.253 0-71.188-31.935-71.188-71.188 0-38.916 31.641-71.189 71.188-71.189h188.96c20.567 0 40.132 8.915 53.676 24.458 2.721 3.123 7.459 3.448 10.582.728 3.123-2.722 3.448-7.459.727-10.582-7.286-8.361-16.015-15.134-25.649-20.082l-4.327-27.356 27.618-4.118c20.248-3.02 38.125-13.765 50.337-30.258 12.213-16.492 17.275-36.727 14.256-56.976l-1.845-12.375c24.971-14.989 39.903-44.403 35.323-75.12zm-255.178-60.882c11.822 0 21.44 9.618 21.44 21.44 0 11.684-9.522 21.441-21.44 21.441-11.735 0-21.44-9.568-21.44-21.441 0-11.821 9.618-21.44 21.44-21.44zm-11.978 55.863c3.582 1.244 7.737 2.019 11.978 2.019 4.194 0 8.312-.748 11.979-2.019v30.388h-23.957zm-228.363 7.232.781-5.24c.524-3.519 3.797-5.866 7.232-5.355l12.267 1.829c3.47.518 5.872 3.762 5.355 7.232l-.848 5.687c-2.686 18.012 9.461 35.239 27.077 38.403 18.565 3.334 36.231-9.32 39.015-27.99l.929-6.231c.517-3.467 3.742-5.875 7.233-5.355l12.267 1.829c3.479.519 5.873 3.753 5.355 7.233l-.929 6.231c-2.329 15.616-10.661 29.354-23.462 38.682-12.815 9.339-28.551 13.008-43.965 10.486-.018-.003-.036-.005-.055-.008-.011-.002-.022-.004-.033-.006-31.567-5.231-52.96-35.638-48.219-67.427zm85.447 157.681c-16.285-2.429-30.666-11.075-40.494-24.348s-13.904-29.551-11.475-45.837l1.196-8.019c3.25 1.078 7.368 2.132 11.125 2.752.005 0 .01.002.015.003 4.331.713 9.052 1.067 13.713.964l-1.194 8.006c-2.982 19.996 10.824 38.642 30.821 41.624l27.969 4.17c-.114.718.108-.683-3.926 24.822zm249.374 36.789h-188.96c-7.561 0-15.559 1.035-23.142 3.153l14.706-92.962h49.081c4.142 0 7.5-3.358 7.5-7.5s-3.358-7.5-7.5-7.5h-46.706l1.967-12.414c3.588-22.651 22.835-39.09 45.764-39.09h105.621c22.93 0 42.176 16.44 45.764 39.09l1.967 12.414h-124.376c-4.142 0-7.5 3.358-7.5 7.5s3.358 7.5 7.5 7.5h126.751l14.706 92.961c-7.391-2.066-15.302-3.152-23.143-3.152zm111.187-114.993 1.196 8.019c2.429 16.285-1.647 32.564-11.475 45.837s-24.209 21.919-40.494 24.348l-27.75 4.138c-.955-6.039-2.902-18.346-3.927-24.822l27.969-4.17c9.663-1.441 18.194-6.568 24.02-14.437 11.633-15.712 5.64-31.088 5.607-35.193 4.451.098 9.172-.22 13.657-.957.018-.003.037-.005.056-.008 3.534-.581 7.695-1.61 11.141-2.755zm-13.578-12.046c-31.686 5.227-62.583-16.305-67.482-49.16l-.929-6.231c-.518-3.471 1.885-6.715 5.355-7.233l12.268-1.829c3.486-.519 6.715 1.883 7.232 5.355l.929 6.231c2.781 18.655 20.435 31.327 39.015 27.99 17.616-3.164 29.763-20.391 27.077-38.403l-.848-5.686c-.518-3.478 1.876-6.713 5.356-7.232l12.266-1.829c3.469-.517 6.715 1.885 7.233 5.356l.781 5.239c4.776 32.034-16.916 62.285-48.253 67.432z"/></g></g></svg>