<svg id="Capa_1" enable-background="new 0 0 512 512" height="512" viewBox="0 0 512 512" width="512" xmlns="http://www.w3.org/2000/svg"><g><g><g><path d="m144.609 337.639-25.277 25.277 4.44 22.189 25.312 7.562 25.276-25.276-5.811-25.812z" fill="#8991a6"/><g><path d="m154.3 397.88-40.18-40.18c-5.67-5.67-14.85-5.67-20.52 0l-73.53 73.53c-16.76 16.76-16.76 43.94 0 60.7s43.94 16.76 60.7 0l73.53-73.53c5.67-5.67 5.67-14.85 0-20.52z" fill="#ffa1ac"/></g><path d="m154.3 397.88-28.284-28.284c5.67 5.67 5.67 14.85 0 20.52l-73.53 73.53c-11.653 11.653-28.344 15.204-43.068 10.652 1.995 6.452 5.545 12.526 10.652 17.632 16.76 16.76 43.94 16.76 60.7 0l73.53-73.53c5.67-5.67 5.67-14.85 0-20.52z" fill="#ff6e80"/><circle cx="301.942" cy="210.057" fill="#8991a6" r="202.558"/><path d="m504.5 210.057c0-63.137-28.891-119.523-74.17-156.672 28.672 34.947 45.886 79.656 45.886 128.387 0 111.869-90.688 202.557-202.558 202.557-48.732 0-93.441-17.214-128.388-45.886 37.148 45.279 93.535 74.17 156.673 74.17 111.869.002 202.557-90.686 202.557-202.556z" fill="#5d6a85"/><path d="m468.11 210.06c0 42.99-16.33 82.18-43.13 111.69l-123.04-27.083-123.04 27.083c-26.8-29.51-43.13-68.7-43.13-111.69 0-91.78 74.4-166.17 166.17-166.17s166.17 74.39 166.17 166.17z" fill="#a8e1f6"/></g><g><path d="m424.98 166.95v154.8c-14.08 15.5-31.06 28.33-50.07 37.64l-24.593-11.723-21.117 26.333c-8.87 1.47-17.98 2.23-27.26 2.23-9.55 0-18.92-.81-28.03-2.36l-24.495-26.114-21.215 11.254c-18.7-9.28-35.41-21.97-49.3-37.26v-154.8c0-15.46 12.54-28 28-28h190.08c15.46 0 28 12.54 28 28z" fill="#fff4e5"/><g><path d="m273.91 298.65v75.22c-16.15-2.74-31.5-7.81-45.71-14.86v-60.36c0-7.54 6.11-13.65 13.65-13.65h18.41c7.54 0 13.65 6.11 13.65 13.65z" fill="#ffa1ac"/><path d="m374.91 268.65v90.74c-14.21 6.96-29.57 11.95-45.71 14.61v-105.35c0-7.54 6.11-13.65 13.65-13.65h18.41c7.54 0 13.65 6.11 13.65 13.65z" fill="#93ecdd"/></g></g><g><path d="m252.097 213.276c-.04 12.848-13.152 23.222-29.285 23.171s-29.179-10.506-29.139-23.354 13.151-23.222 29.285-23.172c16.133.051 29.179 10.507 29.139 23.355z" fill="#ffa1ac"/><path d="m352.011 213.589c-.04 12.848 13.006 23.304 29.139 23.354 16.133.051 29.245-10.323 29.285-23.171s-13.006-23.304-29.139-23.355c-16.133-.05-29.245 10.324-29.285 23.172z" fill="#ffa1ac"/><path d="m325.662 195.632c.046-14.555-10.495-15.956-23.502-15.997s-23.556 1.294-23.602 15.849 10.462 26.387 23.469 26.428c13.008.042 23.589-11.725 23.635-26.28z" fill="#495560"/></g></g><g><path d="m301.93 0c-115.827 0-210.058 94.231-210.058 210.057 0 47.646 15.946 91.638 42.781 126.92l-15.333 15.333c-4.146-4.102-9.636-6.359-15.473-6.359-5.878 0-11.404 2.289-15.561 6.446l-73.53 73.53c-19.659 19.659-19.659 51.646 0 71.306 9.523 9.522 22.185 14.767 35.652 14.767 13.468 0 26.129-5.245 35.652-14.768l31.33-31.33c2.929-2.929 2.929-7.678 0-10.606-2.929-2.929-7.678-2.929-10.606 0l-31.33 31.33c-13.811 13.81-36.281 13.81-50.091 0-13.811-13.811-13.811-36.282 0-50.093l73.53-73.53c1.323-1.323 3.083-2.052 4.954-2.052s3.631.729 4.954 2.052l40.184 40.184c1.323 1.323 2.052 3.083 2.052 4.954s-.729 3.631-2.052 4.954l-18.528 18.528c-2.929 2.929-2.929 7.678 0 10.606 2.929 2.929 7.678 2.929 10.606 0l18.528-18.528c4.157-4.156 6.446-9.683 6.446-15.561 0-5.837-2.258-11.327-6.36-15.473l15.333-15.333c35.281 26.834 79.273 42.78 126.919 42.78 115.827 0 210.059-94.231 210.059-210.058 0-115.825-94.231-210.056-210.058-210.056zm-152.858 382.061-19.145-19.145 14.273-14.273c5.967 6.783 12.363 13.178 19.145 19.145zm152.858 23.054c-107.555 0-195.058-87.502-195.058-195.058 0-107.555 87.502-195.057 195.058-195.057s195.059 87.502 195.059 195.057c-.001 107.555-87.504 195.058-195.059 195.058z"/><path d="m443.624 109.616c-2.398-3.376-7.08-4.171-10.457-1.773-3.378 2.398-4.172 7.08-1.773 10.458 19.106 26.907 29.206 58.636 29.206 91.757 0 33.44-10.399 64.497-28.132 90.108v-133.213c0-19.575-15.925-35.5-35.5-35.5h-190.076c-19.575 0-35.5 15.925-35.5 35.5v65.713c0 4.142 3.358 7.5 7.5 7.5s7.5-3.358 7.5-7.5v-65.713c0-11.304 9.196-20.5 20.5-20.5h190.075c11.304 0 20.5 9.196 20.5 20.5v151.748c-10.278 10.924-22.084 20.395-35.072 28.069v-78.12c0-11.662-9.487-21.15-21.149-21.15h-18.408c-11.662 0-21.149 9.488-21.149 21.15v98.852c-6.475.808-13.069 1.225-19.759 1.225-6.957 0-13.811-.451-20.534-1.323v-68.754c0-11.662-9.487-21.15-21.149-21.15h-18.408c-11.662 0-21.15 9.488-21.15 21.15v47.659c-12.683-7.591-24.223-16.901-34.296-27.607v-50.368c0-4.142-3.358-7.5-7.5-7.5s-7.5 3.358-7.5 7.5v31.831c-17.733-25.611-28.132-56.668-28.132-90.108 0-87.49 71.179-158.668 158.669-158.668 37.896 0 74.579 13.574 103.293 38.222 3.144 2.699 7.88 2.336 10.575-.806 2.698-3.143 2.338-7.878-.806-10.576-31.432-26.981-71.584-41.84-113.063-41.84-95.761 0-173.669 77.907-173.669 173.668s77.908 173.669 173.669 173.669c95.762 0 173.67-77.908 173.67-173.669 0-36.25-11.056-70.982-31.975-100.441zm-207.936 189.034c0-3.391 2.759-6.15 6.15-6.15h18.408c3.391 0 6.149 2.759 6.149 6.15v66.064c-10.685-2.454-20.961-5.989-30.707-10.485zm101-30c0-3.391 2.759-6.15 6.149-6.15h18.408c3.391 0 6.149 2.759 6.149 6.15v85.934c-9.751 4.435-20.027 7.911-30.707 10.307v-96.241z"/><path d="m301.935 229.413h.092c8.421 0 16.297-3.603 22.187-10.152 5.699-6.336 8.853-14.72 8.88-23.605.038-12.007-5.93-17.582-10.942-20.144-5.416-2.767-11.927-3.351-20.036-3.376-8.081-.032-14.624.517-20.056 3.251-5.029 2.531-11.031 8.067-11.069 20.075-.028 8.885 3.073 17.288 8.731 23.661 5.87 6.608 13.758 10.263 22.213 10.29zm-13.133-40.627c2.841-1.43 7.979-1.651 12.744-1.651.175 0 .349 0 .522.001 4.908.015 10.32.233 13.257 1.733 1.042.533 2.785 1.424 2.769 6.74-.016 5.193-1.804 10.031-5.033 13.622-3.006 3.343-6.924 5.183-11.035 5.182h-.043c-4.126-.013-8.049-1.878-11.045-5.251-3.207-3.611-4.964-8.46-4.947-13.653.016-5.317 1.766-6.197 2.811-6.723z"/><path d="m225.993 195.38h.024c4.131 0 7.487-3.343 7.5-7.477.005-1.711.676-3.317 1.89-4.522 1.208-1.201 2.811-1.861 4.514-1.861h.021c1.711.005 3.317.676 4.522 1.89 1.206 1.213 1.867 2.824 1.862 4.535-.013 4.142 3.334 7.51 7.477 7.523h.024c4.131 0 7.487-3.343 7.5-7.477.037-11.803-9.535-21.435-21.337-21.471h-.07c-5.691 0-11.046 2.208-15.085 6.221-4.055 4.03-6.298 9.398-6.316 15.116-.015 4.142 3.332 7.51 7.474 7.523z"/><path d="m350.282 195.769h.024c4.13 0 7.486-3.342 7.499-7.476.011-3.525 2.882-6.384 6.403-6.384h.021c3.531.011 6.396 2.893 6.385 6.425-.013 4.142 3.335 7.51 7.478 7.523h.023c4.131 0 7.486-3.343 7.499-7.477.036-11.802-9.536-21.434-21.338-21.471h-.068c-11.77 0-21.365 9.558-21.402 21.336-.013 4.142 3.334 7.511 7.476 7.524z"/></g></g></svg>